<svg width="38" height="42" viewBox="0 0 38 42" fill="none" xmlns="http://www.w3.org/2000/svg">
<path d="M15.9162 0.725635C17.584 -0.241878 19.6424 -0.241878 21.3102 0.725635L27.9119 4.5552L34.5293 8.35767C36.2011 9.31831 37.2303 11.1009 37.2264 13.0291L37.2107 20.6611L37.2264 28.2931C37.2303 30.2213 36.2011 32.0039 34.5293 32.9645L27.9119 36.767L21.3102 40.5966C19.6424 41.5641 17.584 41.5641 15.9162 40.5966L9.31446 36.767L2.69705 32.9645C1.02522 32.0039 -0.00394861 30.2213 1.13868e-05 28.2931L0.0156612 20.6611L1.13868e-05 13.0291C-0.00394861 11.1009 1.02522 9.31832 2.69705 8.35767L9.31446 4.5552L15.9162 0.725635Z" fill="url(#paint0_linear_213_31)"/>
<path d="M15.9162 0.725635C17.584 -0.241878 19.6424 -0.241878 21.3102 0.725635L27.9119 4.5552L34.5293 8.35767C36.2011 9.31831 37.2303 11.1009 37.2264 13.0291L37.2107 20.6611L37.2264 28.2931C37.2303 30.2213 36.2011 32.0039 34.5293 32.9645L27.9119 36.767L21.3102 40.5966C19.6424 41.5641 17.584 41.5641 15.9162 40.5966L9.31446 36.767L2.69705 32.9645C1.02522 32.0039 -0.00394861 30.2213 1.13868e-05 28.2931L0.0156612 20.6611L1.13868e-05 13.0291C-0.00394861 11.1009 1.02522 9.31832 2.69705 8.35767L9.31446 4.5552L15.9162 0.725635Z" fill="url(#paint1_radial_213_31)" fill-opacity="0.2"/>
<path d="M23.5307 16.0812C23.5443 15.9024 23.6231 15.7349 23.7521 15.6103C23.8811 15.4857 24.0513 15.4128 24.2304 15.4054H26.3243C26.4438 15.4052 26.5582 15.3576 26.6427 15.2732C26.7271 15.1887 26.7747 15.0743 26.7749 14.9548V12.6117C26.7747 12.4922 26.7271 12.3777 26.6427 12.2933C26.5582 12.2088 26.4438 12.1613 26.3243 12.1611H23.9812C23.8618 12.1613 23.7473 12.2088 23.6629 12.2933C23.5784 12.3777 23.5309 12.4922 23.5307 12.6117V14.701C23.5233 14.8739 23.4559 15.0389 23.34 15.1675C23.2241 15.2961 23.067 15.3802 22.8957 15.4054H20.7355C20.616 15.4054 20.5014 15.4529 20.4169 15.5374C20.3324 15.6219 20.2849 15.7365 20.2849 15.856V17.9445C20.2773 18.1174 20.2098 18.2822 20.0939 18.4107C19.9781 18.5393 19.8211 18.6235 19.6499 18.6489H17.671C17.5124 18.6258 17.3655 18.5519 17.2524 18.4382C17.1393 18.3246 17.0661 18.1773 17.0438 18.0186V15.8583C17.0438 15.7388 16.9963 15.6242 16.9118 15.5397C16.8273 15.4552 16.7127 15.4077 16.5932 15.4077H14.4276C14.2689 15.3846 14.122 15.3107 14.009 15.197C13.8959 15.0834 13.8227 14.9361 13.8003 14.7774V12.6171C13.8001 12.4976 13.7526 12.3832 13.6681 12.2987C13.5837 12.2142 13.4692 12.1667 13.3498 12.1665H11.0067C10.8872 12.1667 10.7727 12.2142 10.6883 12.2987C10.6038 12.3832 10.5563 12.4976 10.5561 12.6171V14.9602C10.5563 15.0797 10.6038 15.1941 10.6883 15.2786C10.7727 15.363 10.8872 15.4106 11.0067 15.4108H13.0898C13.2887 15.4215 13.4754 15.5106 13.609 15.6585C13.6755 15.7368 13.7256 15.8277 13.7565 15.9258C13.7874 16.0238 13.7983 16.127 13.7887 16.2294L13.7972 16.2217V17.9499C13.7871 18.1283 13.7154 18.2976 13.5943 18.429C13.4789 18.5498 13.3267 18.6291 13.1615 18.6543H11.0013C10.8818 18.6543 10.7672 18.7018 10.6827 18.7863C10.5982 18.8708 10.5507 18.9854 10.5507 19.1049V27.9297C10.5509 28.0491 10.5984 28.1636 10.6829 28.248C10.7673 28.3325 10.8818 28.38 11.0013 28.3802H13.3444C13.4638 28.38 13.5783 28.3325 13.6627 28.248C13.7472 28.1636 13.7947 28.0491 13.7949 27.9297V19.3255C13.8073 19.167 13.8703 19.0166 13.9747 18.8966C14.1087 18.7493 14.2951 18.6604 14.4939 18.6489H16.3309C16.4318 18.6532 16.5307 18.6783 16.6215 18.7225C16.7123 18.7668 16.793 18.8292 16.8586 18.906C16.9242 18.9828 16.9732 19.0723 17.0027 19.1689C17.0322 19.2655 17.0414 19.3672 17.0299 19.4675L17.0384 19.4598V21.4418C17.0383 21.501 17.0499 21.5597 17.0725 21.6144C17.0951 21.6691 17.1282 21.7188 17.1701 21.7607C17.212 21.8025 17.2617 21.8357 17.3164 21.8583C17.3711 21.8809 17.4297 21.8925 17.4889 21.8924H19.8313C19.8904 21.8925 19.9491 21.8809 20.0038 21.8583C20.0585 21.8357 20.1082 21.8025 20.1501 21.7607C20.1919 21.7188 20.2251 21.6691 20.2477 21.6144C20.2703 21.5597 20.2819 21.501 20.2818 21.4418V19.3255C20.2949 19.167 20.3581 19.0167 20.4624 18.8966C20.5964 18.7493 20.7828 18.6604 20.9816 18.6489H22.8178C23.0166 18.6602 23.2031 18.7492 23.337 18.8966C23.4036 18.9749 23.4539 19.0658 23.4849 19.1638C23.5159 19.2619 23.527 19.3651 23.5175 19.4675L23.5253 19.4598V27.9297C23.5255 28.0491 23.573 28.1636 23.6575 28.248C23.7419 28.3325 23.8564 28.38 23.9758 28.3802H26.3189C26.4384 28.38 26.5528 28.3325 26.6373 28.248C26.7217 28.1636 26.7693 28.0491 26.7695 27.9297V19.0995C26.7695 18.98 26.722 18.8654 26.6375 18.7809C26.553 18.6964 26.4384 18.6489 26.3189 18.6489H24.1587C24 18.6257 23.8531 18.5518 23.7399 18.4381C23.6267 18.3245 23.5533 18.1773 23.5307 18.0186V16.0812Z" fill="white"/>
<defs>
<linearGradient id="paint0_linear_213_31" x1="8.27036" y1="-4.5851" x2="23.581" y2="39.7179" gradientUnits="userSpaceOnUse">
<stop stop-color="#0049FF"/>
<stop offset="0.421875" stop-color="#6300FF"/>
<stop offset="0.890604" stop-color="#F43178"/>
</linearGradient>
<radialGradient id="paint1_radial_213_31" cx="0" cy="0" r="1" gradientUnits="userSpaceOnUse" gradientTransform="translate(18.6132 42.1611) rotate(-87.4969) scale(44.7529 44.7529)">
<stop offset="0.294693" stop-color="#F43178"/>
<stop offset="0.723056" stop-opacity="0"/>
</radialGradient>
</defs>
</svg>
